<svg width="34" height="44" viewBox="0 0 34 44" fill="none" xmlns="http://www.w3.org/2000/svg">
<path fill-rule="evenodd" clip-rule="evenodd" d="M17.0149 43.4572C17.9041 43.4572 33.7919 26.4818 33.7919 17.2162C33.7919 7.95049 26.2805 0.439178 17.0149 0.439178C7.74922 0.439178 0.237915 7.95049 0.237915 17.2162C0.237915 26.4818 16.1257 43.4572 17.0149 43.4572ZM17.0149 25.6075C21.7126 25.6075 25.5209 21.7991 25.5209 17.1014C25.5209 12.4037 21.7126 8.5955 17.0149 8.5955C12.3172 8.5955 8.509 12.4037 8.509 17.1014C8.509 21.7991 12.3172 25.6075 17.0149 25.6075Z" fill="#8B56FF"/>
<path fill-rule="evenodd" clip-rule="evenodd" d="M0.237915 17.2162C0.237915 26.4818 16.1257 43.4572 17.0149 43.4572V25.6075C12.3172 25.6073 8.509 21.7991 8.509 17.1014C8.509 12.4038 12.3172 8.59552 17.0149 8.5955V0.439178C7.74922 0.439178 0.237915 7.95049 0.237915 17.2162Z" fill="#6439C3"/>
</svg>
